<?xml version="1.0" encoding="UTF-8"?>
<svg width="575px" height="221px" viewBox="0 0 575 221" version="1.1" xmlns="http://www.w3.org/2000/svg" xmlns:xlink="http://www.w3.org/1999/xlink">
    <!-- Generator: Sketch 63.1 (92452) - https://sketch.com -->
    <title>Group 5</title>
    <desc>Created with Sketch.</desc>
    <g id="Page-1" stroke="none" stroke-width="1" fill="none" fill-rule="evenodd">
        <g id="Artboard" transform="translate(-649.000000, -70.000000)">
            <g id="Group-5" transform="translate(649.000000, 70.000000)">
                <g id="Group-4">
                    <path d="M8.07003891,92 C9.30479896,92 9.92217899,91.3741497 9.92217899,90.122449 L9.92217899,90.122449 L9.92217899,12.7405248 L29.1050584,44.3906706 C29.3696498,44.8377065 29.7885863,45.2176871 30.3618677,45.5306122 C30.9351492,45.8435374 31.4863813,46 32.0155642,46 L32.0155642,46 L35.9844358,46 C36.4254215,46 36.9325551,45.8435374 37.5058366,45.5306122 C38.079118,45.2176871 38.4980545,44.8377065 38.7626459,44.3906706 L38.7626459,44.3906706 L57.9455253,12.7405248 L57.9455253,90.122449 C57.9455253,91.3741497 58.5629053,92 59.7976654,92 L59.7976654,92 L66.1478599,92 C67.38262,92 68,91.3741497 68,90.122449 L68,90.122449 L68,1.87755102 C68,0.62585034 67.38262,0 66.1478599,0 L66.1478599,0 L58.077821,0 C57.5486381,0 56.997406,0.156462585 56.4241245,0.469387755 C55.8508431,0.782312925 55.4319066,1.16229349 55.1673152,1.60932945 L34,33.7959184 L12.7003891,1.60932945 C12.4357977,1.16229349 12.0168612,0.782312925 11.4435798,0.469387755 C10.8702983,0.156462585 10.3631647,0 9.92217899,0 L9.92217899,0 L1.85214008,0 C0.617380026,0 0,0.62585034 0,1.87755102 L0,1.87755102 L0,90.122449 C0,91.3741497 0.617380026,92 1.85214008,92 L1.85214008,92 L8.07003891,92 Z" id="Path" fill="#FFFFFF" fill-rule="nonzero"></path>
                    <path d="M141.684825,0 L142.21195,0.00685455134 C144.662263,0.0708303639 146.978124,0.582636864 149.159533,1.54227405 C151.496757,2.57045675 153.547341,3.97862002 155.311284,5.76676385 C157.075227,7.55490768 158.464332,9.63362488 159.478599,12.0029155 C160.492866,14.372206 161,16.8979592 161,19.5801749 L161,19.5801749 L161,72.4198251 L160.993238,72.9544801 C160.930128,75.4411921 160.425249,77.8110787 159.478599,80.0641399 C158.464332,82.4781341 157.075227,84.5568513 155.311284,86.3002915 C153.547341,88.0437318 151.496757,89.4295432 149.159533,90.4577259 C146.822309,91.4859086 144.330739,92 141.684825,92 L141.684825,92 L112.182879,92 L111.655754,91.9931454 C109.205442,91.9291696 106.889581,91.4173631 104.708171,90.4577259 C102.370947,89.4295432 100.342412,88.0437318 98.6225681,86.3002915 C96.9027237,84.5568513 95.535668,82.4781341 94.5214008,80.0641399 C93.5071336,77.6501458 93,75.1020408 93,72.4198251 L93,72.4198251 L93,19.5801749 L93.0067618,19.0458179 C93.0698717,16.5618875 93.5747514,14.2142533 94.5214008,12.0029155 C95.535668,9.63362488 96.9027237,7.55490768 98.6225681,5.76676385 C100.342412,3.97862002 102.370947,2.57045675 104.708171,1.54227405 C107.045396,0.514091351 109.536965,0 112.182879,0 L112.182879,0 L141.684825,0 Z M141.684825,10.1924198 L112.182879,10.1924198 L111.85139,10.1976169 C109.436055,10.2738412 107.363672,11.1885326 105.634241,12.941691 C103.8262,14.7745384 102.922179,16.9873664 102.922179,19.5801749 L102.922179,19.5801749 L102.922179,72.4198251 L102.927306,72.7558626 C103.002498,75.2043352 103.90481,77.3051506 105.634241,79.058309 C107.442283,80.8911565 109.625162,81.8075802 112.182879,81.8075802 L112.182879,81.8075802 L141.684825,81.8075802 C144.242542,81.8075802 146.425422,80.8911565 148.233463,79.058309 C150.041505,77.2254616 150.945525,75.0126336 150.945525,72.4198251 L150.945525,72.4198251 L150.945525,19.5801749 L150.940399,19.2441374 C150.865206,16.7956648 149.962894,14.6948494 148.233463,12.941691 C146.425422,11.1088435 144.242542,10.1924198 141.684825,10.1924198 L141.684825,10.1924198 Z" id="Combined-Shape" fill="#FFFFFF" fill-rule="nonzero"></path>
                    <path d="M194.306796,92 C195.557282,92 196.182524,91.3741497 196.182524,90.122449 L196.182524,90.122449 L196.182524,11.3994169 L244.817476,51.6326531 L244.817476,90.122449 C244.817476,91.3741497 245.442718,92 246.693204,92 L246.693204,92 L253.124272,92 C254.374757,92 255,91.3741497 255,90.122449 L255,90.122449 L255,1.87755102 C255,0.62585034 254.374757,0 253.124272,0 L253.124272,0 L246.693204,0 C245.442718,0 244.817476,0.62585034 244.817476,1.87755102 L244.817476,1.87755102 L244.817476,38.0874636 L200.201942,1.20699708 C199.219417,0.402332362 198.102913,0 196.852427,0 L196.852427,0 L187.875728,0 C187.429126,0 187.004854,0.178814383 186.602913,0.536443149 C186.200971,0.894071914 186,1.34110787 186,1.87755102 L186,1.87755102 L186,90.122449 C186,90.6588921 186.200971,91.1059281 186.602913,91.4635569 C187.004854,91.8211856 187.429126,92 187.875728,92 L187.875728,92 L194.306796,92 Z" id="Path" fill="#FFFFFF" fill-rule="nonzero"></path>
                    <path d="M328.684825,0 L329.21195,0.00685455134 C331.662263,0.0708303639 333.978124,0.582636864 336.159533,1.54227405 C338.496757,2.57045675 340.547341,3.97862002 342.311284,5.76676385 C344.075227,7.55490768 345.464332,9.63362488 346.478599,12.0029155 C347.492866,14.372206 348,16.8979592 348,19.5801749 L348,19.5801749 L348,72.4198251 L347.993238,72.9544801 C347.930128,75.4411921 347.425249,77.8110787 346.478599,80.0641399 C345.464332,82.4781341 344.075227,84.5568513 342.311284,86.3002915 C340.547341,88.0437318 338.496757,89.4295432 336.159533,90.4577259 C333.822309,91.4859086 331.330739,92 328.684825,92 L328.684825,92 L299.182879,92 L298.655754,91.9931454 C296.205442,91.9291696 293.889581,91.4173631 291.708171,90.4577259 C289.370947,89.4295432 287.342412,88.0437318 285.622568,86.3002915 C283.902724,84.5568513 282.535668,82.4781341 281.521401,80.0641399 C280.507134,77.6501458 280,75.1020408 280,72.4198251 L280,72.4198251 L280,19.5801749 L280.006762,19.0458179 C280.069872,16.5618875 280.574751,14.2142533 281.521401,12.0029155 C282.535668,9.63362488 283.902724,7.55490768 285.622568,5.76676385 C287.342412,3.97862002 289.370947,2.57045675 291.708171,1.54227405 C294.045396,0.514091351 296.536965,0 299.182879,0 L299.182879,0 L328.684825,0 Z M328.684825,10.1924198 L299.182879,10.1924198 L298.85139,10.1976169 C296.436055,10.2738412 294.363672,11.1885326 292.634241,12.941691 C290.8262,14.7745384 289.922179,16.9873664 289.922179,19.5801749 L289.922179,19.5801749 L289.922179,72.4198251 L289.927306,72.7558626 C290.002498,75.2043352 290.90481,77.3051506 292.634241,79.058309 C294.442283,80.8911565 296.625162,81.8075802 299.182879,81.8075802 L299.182879,81.8075802 L328.684825,81.8075802 C331.242542,81.8075802 333.425422,80.8911565 335.233463,79.058309 C337.041505,77.2254616 337.945525,75.0126336 337.945525,72.4198251 L337.945525,72.4198251 L337.945525,19.5801749 L337.940399,19.2441374 C337.865206,16.7956648 336.962894,14.6948494 335.233463,12.941691 C333.425422,11.1088435 331.242542,10.1924198 328.684825,10.1924198 L328.684825,10.1924198 Z" id="Combined-Shape" fill="#FFFFFF" fill-rule="nonzero"></path>
                    <path d="M15.5009107,221 C16.3096539,221 17.0285367,220.683673 17.6575592,220.05102 C18.1967213,219.508746 18.4663024,218.830904 18.4663024,218.017493 L18.4663024,218.017493 L18.4663024,159.994169 L29.6539162,177.753644 C30.103218,178.476676 30.7322404,179.109329 31.5409836,179.651603 C32.4395871,180.103499 33.2932605,180.329446 34.1020036,180.329446 L34.1020036,180.329446 L40.0327869,180.329446 C40.8415301,180.329446 41.6952034,180.103499 42.5938069,179.651603 C43.4025501,179.109329 44.0315726,178.476676 44.4808743,177.753644 L44.4808743,177.753644 L55.5336976,160.129738 L55.5336976,218.017493 C55.5336976,218.830904 55.8482089,219.508746 56.4772313,220.05102 C57.0163934,220.683673 57.6903461,221 58.4990893,221 L58.4990893,221 L71.0346084,221 C71.8433515,221 72.5622344,220.683673 73.1912568,220.05102 C73.7304189,219.508746 74,218.830904 74,218.017493 L74,218.017493 L74,130.982507 C74,130.169096 73.7304189,129.446064 73.1912568,128.813411 C72.5622344,128.271137 71.8433515,128 71.0346084,128 L71.0346084,128 L58.4990893,128 C58.0497875,128 57.6454159,128.090379 57.2859745,128.271137 L57.2859745,128.271137 L56.2076503,128.813411 C55.3989071,129.265306 54.7698846,129.85277 54.3205829,130.575802 L54.3205829,130.575802 L37.0673953,160.536443 L19.8142077,130.575802 C19.3649059,129.85277 18.6909532,129.265306 17.7923497,128.813411 C17.343048,128.451895 16.8937462,128.225948 16.4444444,128.135569 L16.4444444,128.135569 L15.5009107,128 L2.96539162,128 C2.15664845,128 1.48269581,128.271137 0.943533698,128.813411 C0.314511233,129.446064 0,130.169096 0,130.982507 L0,130.982507 L0,218.017493 C0,218.830904 0.314511233,219.508746 0.943533698,220.05102 C1.48269581,220.683673 2.15664845,221 2.96539162,221 L2.96539162,221 L15.5009107,221 Z" id="Path" fill="#FFFFFF" fill-rule="nonzero"></path>
                    <path d="M164.176136,221 C164.982955,221 165.655303,220.706268 166.193182,220.118805 C166.731061,219.531341 167,218.830904 167,218.017493 L167,218.017493 L167,205.409621 C167,204.59621 166.731061,203.895773 166.193182,203.308309 C165.655303,202.720845 164.982955,202.427114 164.176136,202.427114 L164.176136,202.427114 L114.422348,202.427114 L114.422348,183.854227 L159.469697,183.854227 C160.276515,183.854227 160.971275,183.560496 161.553977,182.973032 C162.136679,182.385569 162.42803,181.685131 162.42803,180.87172 L162.42803,180.87172 L162.42803,168.12828 C162.42803,167.314869 162.136679,166.637026 161.553977,166.094752 C160.971275,165.552478 160.276515,165.281341 159.469697,165.281341 L159.469697,165.281341 L114.422348,165.281341 L114.422348,146.572886 L164.176136,146.572886 C164.982955,146.572886 165.655303,146.301749 166.193182,145.759475 C166.731061,145.217201 167,144.539359 167,143.725948 L167,143.725948 L167,130.982507 C167,130.169096 166.731061,129.468659 166.193182,128.881195 C165.655303,128.293732 164.982955,128 164.176136,128 L164.176136,128 L98.8238636,128 C98.0170455,128 97.344697,128.293732 96.8068182,128.881195 C96.2689394,129.468659 96,130.169096 96,130.982507 L96,130.982507 L96,218.017493 C96,218.830904 96.2689394,219.531341 96.8068182,220.118805 C97.344697,220.706268 98.0170455,221 98.8238636,221 L98.8238636,221 L164.176136,221 Z" id="Path" fill="#FFFFFF" fill-rule="nonzero"></path>
                    <path d="M258.164384,221 C258.97456,221 259.649706,220.706268 260.189824,220.118805 C260.729941,219.531341 261,218.830904 261,218.017493 L261,218.017493 L261,205.409621 C261,204.59621 260.729941,203.895773 260.189824,203.308309 C259.649706,202.720845 258.97456,202.427114 258.164384,202.427114 L258.164384,202.427114 L210.499022,202.427114 L210.499022,130.982507 C210.499022,130.169096 210.206458,129.468659 209.621331,128.881195 C209.036204,128.293732 208.338552,128 207.528376,128 L207.528376,128 L194.970646,128 C194.16047,128 193.462818,128.293732 192.877691,128.881195 C192.292564,129.468659 192,130.169096 192,130.982507 L192,130.982507 L192,218.017493 C192,218.830904 192.292564,219.531341 192.877691,220.118805 C193.462818,220.706268 194.16047,221 194.970646,221 L194.970646,221 L258.164384,221 Z" id="Path" fill="#FFFFFF" fill-rule="nonzero"></path>
                    <path d="M332.142077,128 L332.72648,128.006577 C335.83086,128.076731 338.736241,128.708115 341.442623,129.90073 C344.318154,131.167883 346.834244,132.887591 348.990893,135.059854 C351.147541,137.232117 352.854888,139.766423 354.112933,142.662774 C355.370978,145.559124 356,148.636496 356,151.894891 L356,151.894891 L356,197.105109 L355.99347,197.678241 C355.923821,200.724921 355.296975,203.611249 354.112933,206.337226 C352.854888,209.233577 351.147541,211.767883 348.990893,213.940146 C346.834244,216.112409 344.318154,217.832117 341.442623,219.09927 C338.567092,220.366423 335.46691,221 332.142077,221 L332.142077,221 L305.857923,221 L305.27352,220.993423 C302.16914,220.923269 299.263759,220.291885 296.557377,219.09927 C293.681846,217.832117 291.165756,216.112409 289.009107,213.940146 C286.852459,211.767883 285.145112,209.233577 283.887067,206.337226 C282.629022,203.440876 282,200.363504 282,197.105109 L282,197.105109 L282,151.894891 L282.00653,151.321759 C282.076179,148.275079 282.703025,145.388751 283.887067,142.662774 C285.145112,139.766423 286.852459,137.232117 289.009107,135.059854 C291.165756,132.887591 293.681846,131.167883 296.557377,129.90073 C299.432908,128.633577 302.53309,128 305.857923,128 L305.857923,128 L332.142077,128 Z M332.142077,146.6 L305.857923,146.6 L305.57439,146.605834 C304.171199,146.664171 302.9852,147.160036 302.016393,148.093431 C300.982999,149.089051 300.466302,150.356204 300.466302,151.894891 L300.466302,151.894891 L300.466302,197.105109 L300.472357,197.390431 C300.532908,198.801129 301.047587,199.973175 302.016393,200.906569 C303.049787,201.90219 304.330298,202.4 305.857923,202.4 L305.857923,202.4 L332.142077,202.4 C333.669702,202.4 334.950213,201.90219 335.983607,200.906569 C337.017001,199.910949 337.533698,198.643796 337.533698,197.105109 L337.533698,197.105109 L337.533698,151.894891 L337.527643,151.609569 C337.467092,150.198871 336.952413,149.026825 335.983607,148.093431 C334.950213,147.09781 333.669702,146.6 332.142077,146.6 L332.142077,146.6 Z" id="Combined-Shape" fill="#FFFFFF" fill-rule="nonzero"></path>
                    <path d="M426.142077,128 L426.711322,128.006567 C429.738589,128.076619 432.626558,128.707083 435.375228,129.897959 C438.295689,131.163265 440.834244,132.880466 442.990893,135.049563 C445.147541,137.218659 446.854888,139.749271 448.112933,142.641399 C449.370978,145.533528 450,148.651603 450,151.995627 L450,151.995627 L450,197.004373 L449.99347,197.592149 C449.923821,200.714447 449.296975,203.636597 448.112933,206.358601 C446.854888,209.250729 445.147541,211.781341 442.990893,213.950437 C440.834244,216.119534 438.295689,217.836735 435.375228,219.102041 C432.454766,220.367347 429.377049,221 426.142077,221 L426.142077,221 L378.965392,221 L378.74761,220.992717 C378.030955,220.944167 377.407131,220.652862 376.876138,220.118805 C376.292046,219.531341 376,218.830904 376,218.017493 L376,218.017493 L376,130.982507 L376.007241,130.763469 C376.055513,130.042678 376.345145,129.415253 376.876138,128.881195 C377.460231,128.293732 378.156648,128 378.965392,128 L378.965392,128 L426.142077,128 Z M426.142077,146.572886 L394.466302,146.572886 L394.466302,202.427114 L426.142077,202.427114 C427.669702,202.427114 428.927747,201.907434 429.916211,200.868076 C430.904675,199.828717 431.398907,198.540816 431.398907,197.004373 L431.398907,197.004373 L431.398907,151.995627 L431.392317,151.691652 C431.330813,150.288568 430.838778,149.101992 429.916211,148.131924 C428.927747,147.092566 427.669702,146.572886 426.142077,146.572886 L426.142077,146.572886 Z" id="Combined-Shape" fill="#FFFFFF" fill-rule="nonzero"></path>
                    <path d="M513.346715,221 C514.156934,221 514.854623,220.706268 515.439781,220.118805 C516.024939,219.531341 516.317518,218.876093 516.317518,218.153061 L516.317518,218.153061 L516.317518,184.53207 L541.974453,157.011662 C542.604623,156.379009 543.099757,155.565598 543.459854,154.571429 C543.819951,153.577259 544,152.673469 544,151.860058 L544,151.860058 L544,130.982507 C544,130.169096 543.729927,129.468659 543.189781,128.881195 C542.649635,128.293732 541.974453,128 541.164234,128 L541.164234,128 L528.470803,128 C527.660584,128 526.962895,128.293732 526.377737,128.881195 C525.792579,129.468659 525.5,130.169096 525.5,130.982507 L525.5,130.982507 L525.5,144.539359 C525.5,145.35277 525.297445,146.25656 524.892336,147.250729 C524.487226,148.244898 524.014599,149.01312 523.474453,149.555394 L523.474453,149.555394 L507,167.1793 L490.525547,149.555394 C489.985401,149.01312 489.512774,148.244898 489.107664,147.250729 C488.702555,146.25656 488.5,145.35277 488.5,144.539359 L488.5,144.539359 L488.5,130.982507 C488.5,130.169096 488.207421,129.468659 487.622263,128.881195 C487.037105,128.293732 486.339416,128 485.529197,128 L485.529197,128 L472.835766,128 C472.025547,128 471.350365,128.293732 470.810219,128.881195 C470.270073,129.468659 470,130.169096 470,130.982507 L470,130.982507 L470,151.860058 C470,152.673469 470.180049,153.577259 470.540146,154.571429 C470.900243,155.565598 471.395377,156.379009 472.025547,157.011662 L472.025547,157.011662 L497.682482,184.53207 L497.682482,218.153061 C497.682482,218.876093 497.975061,219.531341 498.560219,220.118805 C499.145377,220.706268 499.843066,221 500.653285,221 L500.653285,221 L513.346715,221 Z" id="Path" fill="#FFFFFF" fill-rule="nonzero"></path>
                    <circle id="Oval" fill="#FF7F08" cx="563.5" cy="209.5" r="11.5"></circle>
                </g>
            </g>
        </g>
    </g>
</svg>