<?xml version="1.0" encoding="UTF-8"?>
<svg width="575px" height="221px" viewBox="0 0 575 221" version="1.1" xmlns="http://www.w3.org/2000/svg" xmlns:xlink="http://www.w3.org/1999/xlink">
    <!-- Generator: Sketch 63.1 (92452) - https://sketch.com -->
    <title>Group 4</title>
    <desc>Created with Sketch.</desc>
    <g id="Page-1" stroke="none" stroke-width="1" fill="none" fill-rule="evenodd">
        <g id="Artboard" transform="translate(-1151.000000, -1118.000000)" fill="#000000">
            <g id="Group-4" transform="translate(1151.000000, 1118.000000)">
                <g id="Group-7" fill-rule="nonzero">
                    <path d="M8.07003891,92 C9.30479896,92 9.92217899,91.3741497 9.92217899,90.122449 L9.92217899,90.122449 L9.92217899,12.7405248 L29.1050584,44.3906706 C29.3696498,44.8377065 29.7885863,45.2176871 30.3618677,45.5306122 C30.9351492,45.8435374 31.4863813,46 32.0155642,46 L32.0155642,46 L35.9844358,46 C36.4254215,46 36.9325551,45.8435374 37.5058366,45.5306122 C38.079118,45.2176871 38.4980545,44.8377065 38.7626459,44.3906706 L38.7626459,44.3906706 L57.9455253,12.7405248 L57.9455253,90.122449 C57.9455253,91.3741497 58.5629053,92 59.7976654,92 L59.7976654,92 L66.1478599,92 C67.38262,92 68,91.3741497 68,90.122449 L68,90.122449 L68,1.87755102 C68,0.62585034 67.38262,0 66.1478599,0 L66.1478599,0 L58.077821,0 C57.5486381,0 56.997406,0.156462585 56.4241245,0.469387755 C55.8508431,0.782312925 55.4319066,1.16229349 55.1673152,1.60932945 L34,33.7959184 L12.7003891,1.60932945 C12.4357977,1.16229349 12.0168612,0.782312925 11.4435798,0.469387755 C10.8702983,0.156462585 10.3631647,0 9.92217899,0 L9.92217899,0 L1.85214008,0 C0.617380026,0 0,0.62585034 0,1.87755102 L0,1.87755102 L0,90.122449 C0,91.3741497 0.617380026,92 1.85214008,92 L1.85214008,92 L8.07003891,92 Z" id="Path"></path>
                    <path d="M141.684825,0 L142.21195,0.00685455134 C144.662263,0.0708303639 146.978124,0.582636864 149.159533,1.54227405 C151.496757,2.57045675 153.547341,3.97862002 155.311284,5.76676385 C157.075227,7.55490768 158.464332,9.63362488 159.478599,12.0029155 C160.492866,14.372206 161,16.8979592 161,19.5801749 L161,19.5801749 L161,72.4198251 L160.993238,72.9544801 C160.930128,75.4411921 160.425249,77.8110787 159.478599,80.0641399 C158.464332,82.4781341 157.075227,84.5568513 155.311284,86.3002915 C153.547341,88.0437318 151.496757,89.4295432 149.159533,90.4577259 C146.822309,91.4859086 144.330739,92 141.684825,92 L141.684825,92 L112.182879,92 L111.655754,91.9931454 C109.205442,91.9291696 106.889581,91.4173631 104.708171,90.4577259 C102.370947,89.4295432 100.342412,88.0437318 98.6225681,86.3002915 C96.9027237,84.5568513 95.535668,82.4781341 94.5214008,80.0641399 C93.5071336,77.6501458 93,75.1020408 93,72.4198251 L93,72.4198251 L93,19.5801749 L93.0067618,19.0458179 C93.0698717,16.5618875 93.5747514,14.2142533 94.5214008,12.0029155 C95.535668,9.63362488 96.9027237,7.55490768 98.6225681,5.76676385 C100.342412,3.97862002 102.370947,2.57045675 104.708171,1.54227405 C107.045396,0.514091351 109.536965,0 112.182879,0 L112.182879,0 L141.684825,0 Z M141.684825,10.1924198 L112.182879,10.1924198 L111.85139,10.1976169 C109.436055,10.2738412 107.363672,11.1885326 105.634241,12.941691 C103.8262,14.7745384 102.922179,16.9873664 102.922179,19.5801749 L102.922179,19.5801749 L102.922179,72.4198251 L102.927306,72.7558626 C103.002498,75.2043352 103.90481,77.3051506 105.634241,79.058309 C107.442283,80.8911565 109.625162,81.8075802 112.182879,81.8075802 L112.182879,81.8075802 L141.684825,81.8075802 C144.242542,81.8075802 146.425422,80.8911565 148.233463,79.058309 C150.041505,77.2254616 150.945525,75.0126336 150.945525,72.4198251 L150.945525,72.4198251 L150.945525,19.5801749 L150.940399,19.2441374 C150.865206,16.7956648 149.962894,14.6948494 148.233463,12.941691 C146.425422,11.1088435 144.242542,10.1924198 141.684825,10.1924198 L141.684825,10.1924198 Z" id="Combined-Shape"></path>
                    <path d="M194.306796,92 C195.557282,92 196.182524,91.3741497 196.182524,90.122449 L196.182524,90.122449 L196.182524,11.3994169 L244.817476,51.6326531 L244.817476,90.122449 C244.817476,91.3741497 245.442718,92 246.693204,92 L246.693204,92 L253.124272,92 C254.374757,92 255,91.3741497 255,90.122449 L255,90.122449 L255,1.87755102 C255,0.62585034 254.374757,0 253.124272,0 L253.124272,0 L246.693204,0 C245.442718,0 244.817476,0.62585034 244.817476,1.87755102 L244.817476,1.87755102 L244.817476,38.0874636 L200.201942,1.20699708 C199.219417,0.402332362 198.102913,0 196.852427,0 L196.852427,0 L187.875728,0 C187.429126,0 187.004854,0.178814383 186.602913,0.536443149 C186.200971,0.894071914 186,1.34110787 186,1.87755102 L186,1.87755102 L186,90.122449 C186,90.6588921 186.200971,91.1059281 186.602913,91.4635569 C187.004854,91.8211856 187.429126,92 187.875728,92 L187.875728,92 L194.306796,92 Z" id="Path"></path>
                    <path d="M328.684825,0 L329.21195,0.00685455134 C331.662263,0.0708303639 333.978124,0.582636864 336.159533,1.54227405 C338.496757,2.57045675 340.547341,3.97862002 342.311284,5.76676385 C344.075227,7.55490768 345.464332,9.63362488 346.478599,12.0029155 C347.492866,14.372206 348,16.8979592 348,19.5801749 L348,19.5801749 L348,72.4198251 L347.993238,72.9544801 C347.930128,75.4411921 347.425249,77.8110787 346.478599,80.0641399 C345.464332,82.4781341 344.075227,84.5568513 342.311284,86.3002915 C340.547341,88.0437318 338.496757,89.4295432 336.159533,90.4577259 C333.822309,91.4859086 331.330739,92 328.684825,92 L328.684825,92 L299.182879,92 L298.655754,91.9931454 C296.205442,91.9291696 293.889581,91.4173631 291.708171,90.4577259 C289.370947,89.4295432 287.342412,88.0437318 285.622568,86.3002915 C283.902724,84.5568513 282.535668,82.4781341 281.521401,80.0641399 C280.507134,77.6501458 280,75.1020408 280,72.4198251 L280,72.4198251 L280,19.5801749 L280.006762,19.0458179 C280.069872,16.5618875 280.574751,14.2142533 281.521401,12.0029155 C282.535668,9.63362488 283.902724,7.55490768 285.622568,5.76676385 C287.342412,3.97862002 289.370947,2.57045675 291.708171,1.54227405 C294.045396,0.514091351 296.536965,0 299.182879,0 L299.182879,0 L328.684825,0 Z M328.684825,10.1924198 L299.182879,10.1924198 L298.85139,10.1976169 C296.436055,10.2738412 294.363672,11.1885326 292.634241,12.941691 C290.8262,14.7745384 289.922179,16.9873664 289.922179,19.5801749 L289.922179,19.5801749 L289.922179,72.4198251 L289.927306,72.7558626 C290.002498,75.2043352 290.90481,77.3051506 292.634241,79.058309 C294.442283,80.8911565 296.625162,81.8075802 299.182879,81.8075802 L299.182879,81.8075802 L328.684825,81.8075802 C331.242542,81.8075802 333.425422,80.8911565 335.233463,79.058309 C337.041505,77.2254616 337.945525,75.0126336 337.945525,72.4198251 L337.945525,72.4198251 L337.945525,19.5801749 L337.940399,19.2441374 C337.865206,16.7956648 336.962894,14.6948494 335.233463,12.941691 C333.425422,11.1088435 331.242542,10.1924198 328.684825,10.1924198 L328.684825,10.1924198 Z" id="Combined-Shape"></path>
                </g>
                <g id="Group-5" transform="translate(0.000000, 128.000000)" fill-rule="nonzero">
                    <path d="M15.5009107,93 C16.3096539,93 17.0285367,92.6836735 17.6575592,92.0510204 C18.1967213,91.5087464 18.4663024,90.8309038 18.4663024,90.0174927 L18.4663024,90.0174927 L18.4663024,31.9941691 L29.6539162,49.7536443 C30.103218,50.4766764 30.7322404,51.1093294 31.5409836,51.6516035 C32.4395871,52.1034985 33.2932605,52.3294461 34.1020036,52.3294461 L34.1020036,52.3294461 L40.0327869,52.3294461 C40.8415301,52.3294461 41.6952034,52.1034985 42.5938069,51.6516035 C43.4025501,51.1093294 44.0315726,50.4766764 44.4808743,49.7536443 L44.4808743,49.7536443 L55.5336976,32.1297376 L55.5336976,90.0174927 C55.5336976,90.8309038 55.8482089,91.5087464 56.4772313,92.0510204 C57.0163934,92.6836735 57.6903461,93 58.4990893,93 L58.4990893,93 L71.0346084,93 C71.8433515,93 72.5622344,92.6836735 73.1912568,92.0510204 C73.7304189,91.5087464 74,90.8309038 74,90.0174927 L74,90.0174927 L74,2.98250729 C74,2.16909621 73.7304189,1.44606414 73.1912568,0.813411079 C72.5622344,0.271137026 71.8433515,0 71.0346084,0 L71.0346084,0 L58.4990893,0 C58.0497875,0 57.6454159,0.0903790087 57.2859745,0.271137026 L57.2859745,0.271137026 L56.2076503,0.813411079 C55.3989071,1.26530612 54.7698846,1.85276968 54.3205829,2.57580175 L54.3205829,2.57580175 L37.0673953,32.5364431 L19.8142077,2.57580175 C19.3649059,1.85276968 18.6909532,1.26530612 17.7923497,0.813411079 C17.343048,0.451895044 16.8937462,0.225947522 16.4444444,0.135568513 L16.4444444,0.135568513 L15.5009107,0 L2.96539162,0 C2.15664845,0 1.48269581,0.271137026 0.943533698,0.813411079 C0.314511233,1.44606414 0,2.16909621 0,2.98250729 L0,2.98250729 L0,90.0174927 C0,90.8309038 0.314511233,91.5087464 0.943533698,92.0510204 C1.48269581,92.6836735 2.15664845,93 2.96539162,93 L2.96539162,93 L15.5009107,93 Z" id="Path"></path>
                    <path d="M164.176136,93 C164.982955,93 165.655303,92.7062682 166.193182,92.1188047 C166.731061,91.5313411 167,90.8309038 167,90.0174927 L167,90.0174927 L167,77.409621 C167,76.5962099 166.731061,75.8957726 166.193182,75.308309 C165.655303,74.7208455 164.982955,74.4271137 164.176136,74.4271137 L164.176136,74.4271137 L114.422348,74.4271137 L114.422348,55.8542274 L159.469697,55.8542274 C160.276515,55.8542274 160.971275,55.5604956 161.553977,54.9730321 C162.136679,54.3855685 162.42803,53.6851312 162.42803,52.8717201 L162.42803,52.8717201 L162.42803,40.1282799 C162.42803,39.3148688 162.136679,38.6370262 161.553977,38.0947522 C160.971275,37.5524781 160.276515,37.2813411 159.469697,37.2813411 L159.469697,37.2813411 L114.422348,37.2813411 L114.422348,18.5728863 L164.176136,18.5728863 C164.982955,18.5728863 165.655303,18.3017493 166.193182,17.7594752 C166.731061,17.2172012 167,16.5393586 167,15.7259475 L167,15.7259475 L167,2.98250729 C167,2.16909621 166.731061,1.46865889 166.193182,0.881195335 C165.655303,0.293731778 164.982955,0 164.176136,0 L164.176136,0 L98.8238636,0 C98.0170455,0 97.344697,0.293731778 96.8068182,0.881195335 C96.2689394,1.46865889 96,2.16909621 96,2.98250729 L96,2.98250729 L96,90.0174927 C96,90.8309038 96.2689394,91.5313411 96.8068182,92.1188047 C97.344697,92.7062682 98.0170455,93 98.8238636,93 L98.8238636,93 L164.176136,93 Z" id="Path"></path>
                    <path d="M258.164384,93 C258.97456,93 259.649706,92.7062682 260.189824,92.1188047 C260.729941,91.5313411 261,90.8309038 261,90.0174927 L261,90.0174927 L261,77.409621 C261,76.5962099 260.729941,75.8957726 260.189824,75.308309 C259.649706,74.7208455 258.97456,74.4271137 258.164384,74.4271137 L258.164384,74.4271137 L210.499022,74.4271137 L210.499022,2.98250729 C210.499022,2.16909621 210.206458,1.46865889 209.621331,0.881195335 C209.036204,0.293731778 208.338552,0 207.528376,0 L207.528376,0 L194.970646,0 C194.16047,0 193.462818,0.293731778 192.877691,0.881195335 C192.292564,1.46865889 192,2.16909621 192,2.98250729 L192,2.98250729 L192,90.0174927 C192,90.8309038 192.292564,91.5313411 192.877691,92.1188047 C193.462818,92.7062682 194.16047,93 194.970646,93 L194.970646,93 L258.164384,93 Z" id="Path"></path>
                    <path d="M332.142077,0 L332.72648,0.00657692016 C335.83086,0.0767307352 338.736241,0.708115071 341.442623,1.90072993 C344.318154,3.16788321 346.834244,4.88759124 348.990893,7.05985401 C351.147541,9.23211679 352.854888,11.7664234 354.112933,14.6627737 C355.370978,17.5591241 356,20.6364964 356,23.8948905 L356,23.8948905 L356,69.1051095 L355.99347,69.6782411 C355.923821,72.7249211 355.296975,75.6112495 354.112933,78.3372263 C352.854888,81.2335766 351.147541,83.7678832 348.990893,85.940146 C346.834244,88.1124088 344.318154,89.8321168 341.442623,91.0992701 C338.567092,92.3664234 335.46691,93 332.142077,93 L332.142077,93 L305.857923,93 L305.27352,92.9934231 C302.16914,92.9232693 299.263759,92.2918849 296.557377,91.0992701 C293.681846,89.8321168 291.165756,88.1124088 289.009107,85.940146 C286.852459,83.7678832 285.145112,81.2335766 283.887067,78.3372263 C282.629022,75.4408759 282,72.3635036 282,69.1051095 L282,69.1051095 L282,23.8948905 L282.00653,23.3217589 C282.076179,20.2750789 282.703025,17.3887505 283.887067,14.6627737 C285.145112,11.7664234 286.852459,9.23211679 289.009107,7.05985401 C291.165756,4.88759124 293.681846,3.16788321 296.557377,1.90072993 C299.432908,0.633576642 302.53309,0 305.857923,0 L305.857923,0 L332.142077,0 Z M332.142077,18.6 L305.857923,18.6 L305.57439,18.6058337 C304.171199,18.6641708 302.9852,19.1600365 302.016393,20.0934307 C300.982999,21.0890511 300.466302,22.3562044 300.466302,23.8948905 L300.466302,23.8948905 L300.466302,69.1051095 L300.472357,69.3904311 C300.532908,70.8011291 301.047587,71.9731752 302.016393,72.9065693 C303.049787,73.9021898 304.330298,74.4 305.857923,74.4 L305.857923,74.4 L332.142077,74.4 C333.669702,74.4 334.950213,73.9021898 335.983607,72.9065693 C337.017001,71.9109489 337.533698,70.6437956 337.533698,69.1051095 L337.533698,69.1051095 L337.533698,23.8948905 L337.527643,23.6095689 C337.467092,22.1988709 336.952413,21.0268248 335.983607,20.0934307 C334.950213,19.0978102 333.669702,18.6 332.142077,18.6 L332.142077,18.6 Z" id="Combined-Shape"></path>
                    <path d="M426.142077,0 L426.711322,0.00656733282 C429.738589,0.0766188828 432.626558,0.707082833 435.375228,1.89795918 C438.295689,3.16326531 440.834244,4.88046647 442.990893,7.04956268 C445.147541,9.21865889 446.854888,11.7492711 448.112933,14.6413994 C449.370978,17.5335277 450,20.6516035 450,23.9956268 L450,23.9956268 L450,69.0043732 L449.99347,69.5921495 C449.923821,72.7144471 449.296975,75.6365975 448.112933,78.3586006 C446.854888,81.2507289 445.147541,83.7813411 442.990893,85.9504373 C440.834244,88.1195335 438.295689,89.8367347 435.375228,91.1020408 C432.454766,92.3673469 429.377049,93 426.142077,93 L426.142077,93 L378.965392,93 L378.74761,92.9927174 C378.030955,92.9441667 377.407131,92.6528624 376.876138,92.1188047 C376.292046,91.5313411 376,90.8309038 376,90.0174927 L376,90.0174927 L376,2.98250729 L376.007241,2.76346891 C376.055513,2.04267764 376.345145,1.41525311 376.876138,0.881195335 C377.460231,0.293731778 378.156648,0 378.965392,0 L378.965392,0 L426.142077,0 Z M426.142077,18.5728863 L394.466302,18.5728863 L394.466302,74.4271137 L426.142077,74.4271137 C427.669702,74.4271137 428.927747,73.9074344 429.916211,72.8680758 C430.904675,71.8287172 431.398907,70.5408163 431.398907,69.0043732 L431.398907,69.0043732 L431.398907,23.9956268 L431.392317,23.6916521 C431.330813,22.2885682 430.838778,21.1019922 429.916211,20.1319242 C428.927747,19.0925656 427.669702,18.5728863 426.142077,18.5728863 L426.142077,18.5728863 Z" id="Combined-Shape"></path>
                    <path d="M513.346715,93 C514.156934,93 514.854623,92.7062682 515.439781,92.1188047 C516.024939,91.5313411 516.317518,90.8760933 516.317518,90.1530612 L516.317518,90.1530612 L516.317518,56.53207 L541.974453,29.0116618 C542.604623,28.3790087 543.099757,27.5655977 543.459854,26.5714286 C543.819951,25.5772595 544,24.6734694 544,23.8600583 L544,23.8600583 L544,2.98250729 C544,2.16909621 543.729927,1.46865889 543.189781,0.881195335 C542.649635,0.293731778 541.974453,0 541.164234,0 L541.164234,0 L528.470803,0 C527.660584,0 526.962895,0.293731778 526.377737,0.881195335 C525.792579,1.46865889 525.5,2.16909621 525.5,2.98250729 L525.5,2.98250729 L525.5,16.5393586 C525.5,17.3527697 525.297445,18.2565598 524.892336,19.2507289 C524.487226,20.244898 524.014599,21.0131195 523.474453,21.5553936 L523.474453,21.5553936 L507,39.1793003 L490.525547,21.5553936 C489.985401,21.0131195 489.512774,20.244898 489.107664,19.2507289 C488.702555,18.2565598 488.5,17.3527697 488.5,16.5393586 L488.5,16.5393586 L488.5,2.98250729 C488.5,2.16909621 488.207421,1.46865889 487.622263,0.881195335 C487.037105,0.293731778 486.339416,0 485.529197,0 L485.529197,0 L472.835766,0 C472.025547,0 471.350365,0.293731778 470.810219,0.881195335 C470.270073,1.46865889 470,2.16909621 470,2.98250729 L470,2.98250729 L470,23.8600583 C470,24.6734694 470.180049,25.5772595 470.540146,26.5714286 C470.900243,27.5655977 471.395377,28.3790087 472.025547,29.0116618 L472.025547,29.0116618 L497.682482,56.53207 L497.682482,90.1530612 C497.682482,90.8760933 497.975061,91.5313411 498.560219,92.1188047 C499.145377,92.7062682 499.843066,93 500.653285,93 L500.653285,93 L513.346715,93 Z" id="Path"></path>
                </g>
                <circle id="Oval" cx="563.5" cy="209.5" r="11.5"></circle>
            </g>
        </g>
    </g>
</svg>